<svg width="25" height="24" viewBox="0 0 25 24" fill="none" xmlns="http://www.w3.org/2000/svg">
<path d="M20.0264 5.47381C18.0864 3.53381 16.1864 3.48381 14.1964 5.47381L12.9864 6.68381C12.8864 6.78381 12.8464 6.94381 12.8864 7.08381C13.6464 9.73381 15.7664 11.8538 18.4164 12.6138C18.4564 12.6238 18.4964 12.6338 18.5364 12.6338C18.6464 12.6338 18.7464 12.5938 18.8264 12.5138L20.0264 11.3038C21.0164 10.3238 21.4964 9.37381 21.4964 8.41381C21.5064 7.42381 21.0264 6.46381 20.0264 5.47381Z" fill="#FCFCFC"/>
<path d="M16.6162 13.5239C16.3262 13.3839 16.0462 13.2439 15.7762 13.0839C15.5562 12.9539 15.3462 12.8139 15.1362 12.6639C14.9662 12.5539 14.7662 12.3939 14.5762 12.2339C14.5562 12.2239 14.4862 12.1639 14.4062 12.0839C14.0762 11.8039 13.7062 11.4439 13.3762 11.0439C13.3462 11.0239 13.2962 10.9539 13.2262 10.8639C13.1262 10.7439 12.9562 10.5439 12.8062 10.3139C12.6862 10.1639 12.5462 9.94395 12.4162 9.72395C12.2562 9.45395 12.1162 9.18394 11.9762 8.90394C11.955 8.85855 11.9345 8.81338 11.9146 8.76848C11.767 8.43516 11.3324 8.33772 11.0746 8.59547L5.34618 14.3239C5.21618 14.4539 5.09618 14.7039 5.06618 14.8739L4.52618 18.7039C4.42618 19.3839 4.61618 20.0239 5.03618 20.4539C5.39618 20.8039 5.89618 20.9939 6.43618 20.9939C6.55618 20.9939 6.67618 20.9839 6.79618 20.9639L10.6362 20.4239C10.8162 20.3939 11.0662 20.2739 11.1862 20.1439L16.9075 14.4226C17.167 14.1631 17.0691 13.7176 16.7315 13.5736C16.6935 13.5573 16.6551 13.5408 16.6162 13.5239Z" fill="#FCFCFC"/>
</svg>
